<?xml version="1.0" encoding="utf-8"?>
<!-- Generator: Adobe Illustrator 16.0.0, SVG Export Plug-In . SVG Version: 6.00 Build 0)  -->
<!DOCTYPE svg PUBLIC "-//W3C//DTD SVG 1.1//EN" "http://www.w3.org/Graphics/SVG/1.1/DTD/svg11.dtd">
<svg version="1.1" xmlns="http://www.w3.org/2000/svg" xmlns:xlink="http://www.w3.org/1999/xlink" x="0px" y="0px" width="649px"
	 height="591px" viewBox="0 0 649 591" enable-background="new 0 0 649 591" xml:space="preserve">
<g id="Layer_2">
	<path fill="#EF1B1B" stroke="#000000" stroke-miterlimit="10" d="M424.244,434.079"/>
	<g>
		
			<image overflow="visible" opacity="0.4" width="614" height="297" xlink:href="213F9AE33628AE7D.png"  transform="matrix(0.7071 -0.7071 0.7071 0.7071 -26.8892 407.209)">
		</image>
		<g>
			<path fill="#DD585D" d="M9.556,376.42L374.121,11.854c0,0,29.391,26.591,58.777-1.398l4.199,4.198c0,0-4.199,8.397,6.998,6.998
				l4.898,4.898c0,0-3.5,9.096,6.996,6.997l4.898,4.898c0,0-2.799,9.796,7.697,7.697l4.898,4.898c0,0-2.799,8.396,6.998,6.998
				l3.498,3.499c0,0-2.1,10.496,8.396,8.397l3.498,3.499c0,0,0.002,9.795,8.398,8.397l4.197,4.198c0,0-2.799,8.396,6.998,6.998
				l4.898,4.898c0,0-1.398,8.396,7.697,7.697l4.898,4.899c0,0-1.398,8.396,6.996,6.996l4.199,4.199c0,0-1.398,8.397,7.697,7.698
				l4.199,4.198c0,0-2.801,8.396,6.996,6.997l4.898,4.898c0,0-1.398,8.396,6.998,6.998l2.799,2.798c0,0-27.289,30.089-1.4,57.379
				L211.082,577.945c0,0-29.389-26.591-58.078,3.499l-3.498-3.498c0,0,2.099-10.496-7.698-7.698l-4.897-4.897
				c0,0,2.798-9.797-7.698-7.698l-4.897-4.897c0,0,2.098-9.097-6.298-6.297l-5.599-5.6c0,0,3.5-9.096-6.997-6.996l-4.198-4.198
				c0,0,2.098-9.098-6.998-6.998l-4.198-4.198c0,0,1.399-9.797-8.397-8.397l-4.199-4.198c0,0,2.1-9.097-7.697-7.697l-3.499-3.499
				c0,0,1.4-8.396-6.997-6.997l-4.898-4.898c0,0,1.399-9.796-6.998-6.997l-4.898-4.897c0,0,0.7-10.497-6.998-6.998l-4.198-4.198
				c0,0,0.699-10.496-7.697-7.697l-4.198-4.198c0,0,0-9.797-8.397-8.397l-4.198-4.198C20.053,421.903,27.05,393.914,9.556,376.42z"
				/>
		</g>
	</g>
	<path fill="#F4A62A" stroke="#000000" stroke-miterlimit="10" d="M424.244,434.079"/>
	<path fill="#BE3438" d="M212.241,576.787c0,0-29.442-26.538-59.237,4.657l-3.498-3.498c0,0,2.336-10.733-7.698-7.698l-4.897-4.897
		c0,0,3.035-10.034-7.698-7.698l-4.897-4.897c0,0,2.309-9.308-6.298-6.297l-5.599-5.6c0,0,3.736-9.332-6.997-6.996l-4.198-4.198
		c0,0,2.309-9.309-6.998-6.998l-4.198-4.198c0,0,1.61-10.008-8.397-8.397l-4.199-4.198c0,0,2.311-9.308-7.697-7.697l-3.499-3.499
		c0,0,1.584-8.581-6.997-6.997l-4.898-4.898c0,0,1.61-10.007-6.998-6.997l-4.898-4.897c0,0,0.911-10.708-6.998-6.998l-4.198-4.198
		c0,0,0.91-10.707-7.697-7.697l-4.198-4.198c0,0,0.184-9.981-8.397-8.397l-4.198-4.198c13.795-13.795,21.451-42.443,3.957-59.937
		l104.524-104.524l201.526,201.525L212.241,576.787z"/>
	<g>
		
			<image overflow="visible" opacity="0.4" width="589" height="51" xlink:href="213F9AE33628AE7F.png"  transform="matrix(0.7071 -0.7071 0.7071 0.7071 149.8877 565.6006)">
		</image>
		<g>
			<g>
				<path fill="none" stroke="#FFFDFD" stroke-miterlimit="10" d="M563.977,158.661c0,0-1.305,1.439-3.043,3.959"/>
				<path fill="none" stroke="#FFFDFD" stroke-miterlimit="10" stroke-dasharray="9.8471,9.8471" d="M556.092,171.182
					c-3.902,8.676-6.438,20.834,0.613,33.118"/>
				<path fill="none" stroke="#FFFDFD" stroke-miterlimit="10" d="M559.432,208.407c0.965,1.273,2.041,2.543,3.238,3.807
					l-3.535,3.536"/>
				
					<line fill="none" stroke="#FFFDFD" stroke-miterlimit="10" stroke-dasharray="9.9209,9.9209" x1="552.121" y1="222.765" x2="218.901" y2="555.984"/>
				<path fill="none" stroke="#FFFDFD" stroke-miterlimit="10" d="M215.393,559.492l-3.536,3.535
					c-0.242-0.008-1.805-1.054-4.368-2.415"/>
				<path fill="none" stroke="#FFFDFD" stroke-miterlimit="10" stroke-dasharray="9.9681,9.9681" d="M198.34,556.686
					c-8.932-2.921-21.22-4.251-33.553,3.438"/>
				<path fill="none" stroke="#FFFDFD" stroke-miterlimit="10" d="M160.711,563.003c-1.255,0.997-2.507,2.096-3.752,3.305"/>
			</g>
		</g>
	</g>
	<g>
		
			<image overflow="visible" opacity="0.4" width="589" height="51" xlink:href="213F9AE33628AE7A.png"  transform="matrix(0.7071 -0.7071 0.7071 0.7071 -10.6255 403.6729)">
		</image>
		<g>
			<g>
				<path fill="none" stroke="#FFFDFD" stroke-miterlimit="10" d="M21.508,430.15c1.147-1.146,2.243-2.41,3.276-3.772"/>
				<path fill="none" stroke="#FFFDFD" stroke-miterlimit="10" stroke-dasharray="10.1253,10.1253" d="M29.896,417.663
					c4.653-10.465,5.808-23.414,0.17-34.283"/>
				<path fill="none" stroke="#FFFDFD" stroke-miterlimit="10" d="M27.383,379.075c-0.967-1.309-2.052-2.573-3.263-3.784
					l3.536-3.536"/>
				
					<line fill="none" stroke="#FFFDFD" stroke-miterlimit="10" stroke-dasharray="9.9225,9.9225" x1="34.673" y1="364.739" x2="367.945" y2="31.467"/>
				<path fill="none" stroke="#FFFDFD" stroke-miterlimit="10" d="M371.453,27.959l3.535-3.535c0,0,1.441,1.304,3.994,3"/>
				<path fill="none" stroke="#FFFDFD" stroke-miterlimit="10" stroke-dasharray="10.1365,10.1365" d="M387.936,32.132
					c8.773,3.495,21.084,5.267,33.99-2.804"/>
				<path fill="none" stroke="#FFFDFD" stroke-miterlimit="10" d="M426.074,26.398c1.256-0.991,2.516-2.083,3.773-3.281"/>
			</g>
		</g>
	</g>
	<g>
		<g>
			<line fill="none" stroke="#FFFDFD" stroke-miterlimit="10" x1="22.255" y1="430.189" x2="25.772" y2="433.743"/>
			
				<line fill="none" stroke="#FFFDFD" stroke-miterlimit="10" stroke-dasharray="9.5791,9.5791" x1="32.51" y1="440.552" x2="150.426" y2="559.703"/>
			<line fill="none" stroke="#FFFDFD" stroke-miterlimit="10" x1="153.795" y1="563.107" x2="157.312" y2="566.661"/>
		</g>
	</g>
	<g>
		<g>
			<line fill="none" stroke="#FFFDFD" stroke-miterlimit="10" x1="429.902" y1="23.25" x2="433.419" y2="26.804"/>
			
				<line fill="none" stroke="#FFFDFD" stroke-miterlimit="10" stroke-dasharray="9.5264,9.5264" x1="440.12" y1="33.575" x2="557.385" y2="152.074"/>
			<line fill="none" stroke="#FFFDFD" stroke-miterlimit="10" x1="560.735" y1="155.46" x2="564.252" y2="159.014"/>
		</g>
	</g>
	<g>
		<g>
			<line fill="none" stroke="#FFFFFF" stroke-miterlimit="10" x1="122.311" y1="277.101" x2="126.553" y2="281.344"/>
			
				<line fill="none" stroke="#FFFFFF" stroke-miterlimit="10" stroke-dasharray="12.0476,12.0476" x1="135.072" y1="289.863" x2="301.192" y2="455.982"/>
			<line fill="none" stroke="#FFFFFF" stroke-miterlimit="10" x1="305.451" y1="460.242" x2="309.694" y2="464.484"/>
		</g>
	</g>
</g>
<g id="Layer_1">
	<path fill="#EF1B1B" stroke="#000000" stroke-miterlimit="10" d="M345,597"/>
	<g>
		
			<image overflow="visible" opacity="0.4" width="614" height="297" xlink:href="213F9AE33628AE7B.png"  transform="matrix(1 0 0 1 35 259)">
		</image>
		<g>
			<path fill="#BE3438" d="M82.542,263h515.574c0,0,1.979,39.583,42.551,40.573v5.938c0,0-8.906,2.969,0,9.896v6.927
				c0,0-8.906,3.958,0,9.896v6.927c0,0-8.906,4.948,0,10.885v6.927c0,0-7.916,3.958,0,9.896v4.948c0,0-8.906,5.938,0,11.875v4.947
				c0,0-6.926,6.928,0,11.875v5.938c0,0-7.916,3.959,0,9.896v6.928c0,0-6.926,4.947,0,10.885v6.928c0,0-6.926,4.947,0,9.895v5.938
				c0,0-6.926,4.949,0,10.887v5.938c0,0-7.916,3.957,0,9.895v6.928c0,0-6.926,4.947,0,9.896v3.957c0,0-40.572,1.98-41.562,39.584
				H82.542c0,0-1.979-39.584-43.542-38.594v-4.947c0,0,8.906-5.938,0-10.887v-6.926c0,0,8.906-4.949,0-10.887v-6.926
				c0,0,7.917-4.949,0-8.906v-7.918c0,0,8.906-3.957,0-9.895v-5.938c0,0,7.917-4.949,0-9.896v-5.938c0,0,7.917-5.938,0-11.875
				v-5.938c0,0,7.917-4.947,0-10.885v-4.949c0,0,6.927-4.947,0-9.895v-6.928c0,0,7.917-5.938,0-9.896v-6.927
				c0,0,7.917-6.927,0-9.896v-5.938c0,0,7.917-6.927,0-10.885v-5.938c0,0,6.927-6.927,0-11.875v-5.938
				C57.802,302.583,82.542,287.74,82.542,263z"/>
		</g>
	</g>
	<path fill="#F4A62A" stroke="#000000" stroke-miterlimit="10" d="M345,597"/>
	<path fill="#DD585D" d="M84.18,548c0,0-2.054-39.584-45.18-38.594v-4.947c0,0,9.241-5.938,0-10.887v-6.926
		c0,0,9.241-4.949,0-10.887v-6.926c0,0,8.215-4.949,0-8.906v-7.918c0,0,9.241-3.957,0-9.895v-5.938c0,0,8.215-4.949,0-9.896v-5.938
		c0,0,8.215-5.938,0-11.875v-5.938c0,0,8.215-4.947,0-10.885v-4.949c0,0,7.188-4.947,0-9.895v-6.928c0,0,8.215-5.938,0-9.896v-6.927
		c0,0,8.215-6.927,0-9.896v-5.938c0,0,8.215-6.927,0-10.885v-5.938c0,0,7.188-6.927,0-11.875v-5.938
		c19.51,0,45.18-14.844,45.18-39.583H232v285H84.18z"/>
	<g>
		
			<image overflow="visible" opacity="0.4" width="589" height="51" xlink:href="213F9AE33628AE85.png"  transform="matrix(1 0 0 1 48 496)">
		</image>
		<g>
			<g>
				<path fill="none" stroke="#FFFDFD" stroke-miterlimit="10" d="M628.556,501.056c0,0-1.94,0.095-4.952,0.647"/>
				<path fill="none" stroke="#FFFDFD" stroke-miterlimit="10" stroke-dasharray="9.8471,9.8471" d="M614.126,504.334
					c-8.895,3.375-19.284,10.18-22.984,23.852"/>
				<path fill="none" stroke="#FFFDFD" stroke-miterlimit="10" d="M590.165,533.018c-0.219,1.582-0.355,3.241-0.401,4.982h-5"/>
				
					<line fill="none" stroke="#FFFDFD" stroke-miterlimit="10" stroke-dasharray="9.9209,9.9209" x1="574.843" y1="538" x2="103.599" y2="538"/>
				<path fill="none" stroke="#FFFDFD" stroke-miterlimit="10" d="M98.639,538h-5c-0.165-0.177-0.531-2.021-1.381-4.797"/>
				<path fill="none" stroke="#FFFDFD" stroke-miterlimit="10" stroke-dasharray="9.9681,9.9681" d="M88.565,523.957
					c-4.25-8.381-11.999-18.011-26.156-21.295"/>
				<path fill="none" stroke="#FFFDFD" stroke-miterlimit="10" d="M57.49,501.816c-1.592-0.183-3.255-0.291-4.99-0.316"/>
			</g>
		</g>
	</g>
	<g>
		
			<image overflow="visible" opacity="0.4" width="589" height="51" xlink:href="213F9AE33628AE87.png"  transform="matrix(1 0 0 1 49 268)">
		</image>
		<g>
			<g>
				<path fill="none" stroke="#FFFDFD" stroke-miterlimit="10" d="M53,309.444c1.622,0,3.291-0.118,4.984-0.351"/>
				<path fill="none" stroke="#FFFDFD" stroke-miterlimit="10" stroke-dasharray="10.1253,10.1253" d="M67.761,306.545
					c10.689-4.11,20.663-12.449,24.362-24.121"/>
				<path fill="none" stroke="#FFFDFD" stroke-miterlimit="10" d="M93.27,277.483c0.242-1.609,0.369-3.271,0.369-4.983h5"/>
				
					<line fill="none" stroke="#FFFDFD" stroke-miterlimit="10" stroke-dasharray="9.9225,9.9225" x1="108.562" y1="272.5" x2="579.879" y2="272.5"/>
				<path fill="none" stroke="#FFFDFD" stroke-miterlimit="10" d="M584.84,272.5h5c0,0,0.098,1.941,0.703,4.945"/>
				<path fill="none" stroke="#FFFDFD" stroke-miterlimit="10" stroke-dasharray="10.1365,10.1365" d="M593.545,287.107
					c3.732,8.675,11.184,18.632,26.018,22.052"/>
				<path fill="none" stroke="#FFFDFD" stroke-miterlimit="10" d="M624.567,310.021c1.589,0.187,3.251,0.305,4.988,0.348"/>
			</g>
		</g>
	</g>
	<g>
		<g>
			<line fill="none" stroke="#FFFDFD" stroke-miterlimit="10" x1="53.5" y1="310" x2="53.474" y2="315"/>
			
				<line fill="none" stroke="#FFFDFD" stroke-miterlimit="10" stroke-dasharray="9.5791,9.5791" x1="53.424" y1="324.579" x2="52.551" y2="492.211"/>
			<line fill="none" stroke="#FFFDFD" stroke-miterlimit="10" x1="52.526" y1="497" x2="52.5" y2="502"/>
		</g>
	</g>
	<g>
		<g>
			<line fill="none" stroke="#FFFDFD" stroke-miterlimit="10" x1="629.5" y1="310.5" x2="629.474" y2="315.5"/>
			
				<line fill="none" stroke="#FFFDFD" stroke-miterlimit="10" stroke-dasharray="9.5265,9.5265" x1="629.424" y1="325.026" x2="628.551" y2="491.737"/>
			<line fill="none" stroke="#FFFDFD" stroke-miterlimit="10" x1="628.526" y1="496.5" x2="628.5" y2="501.5"/>
		</g>
	</g>
	<g>
		<g>
			<line fill="none" stroke="#FFFFFF" stroke-miterlimit="10" x1="232.5" y1="272.5" x2="232.5" y2="278.5"/>
			
				<line fill="none" stroke="#FFFFFF" stroke-miterlimit="10" stroke-dasharray="12.0476,12.0476" x1="232.5" y1="290.548" x2="232.5" y2="525.477"/>
			<line fill="none" stroke="#FFFFFF" stroke-miterlimit="10" x1="232.5" y1="531.5" x2="232.5" y2="537.5"/>
		</g>
	</g>
</g>
<g id="Layer_3">
	<rect x="68.976" y="335" fill="none" width="556.627" height="182.703"/>
	<text transform="matrix(1 0 0 1 68.9761 463.7598)" fill="#FFFFFF" font-family="'CabinSketch-Regular'" font-size="185">M W M</text>
</g>
</svg>
